<svg xmlns="http://www.w3.org/2000/svg" viewBox="0 0 1440 1076" width="100%" role="img" aria-labelledby="ingress-light-title ingress-light-desc">
  <title id="ingress-light-title">Linux v6.6 TCP ingress source walkthrough</title>
  <desc id="ingress-light-desc">A 16-node ingress reading route grouped by four labeled phases. Every node gives a source symbol and ownership summary; line patterns identify edge types.</desc>
  <defs>
    <marker id="ingress-light-arrow" markerWidth="8" markerHeight="8" refX="7" refY="4" orient="auto" markerUnits="strokeWidth">
      <path d="M0,0 L8,4 L0,8 Z" fill="#52514e"/>
    </marker>
    <pattern id="ingress-light-packet-io" width="8" height="8" patternUnits="userSpaceOnUse">
      <path d="M0 4 H8" stroke="#2a78d6" stroke-width="1" opacity=".34"/>
    </pattern>
    <pattern id="ingress-light-network" width="8" height="8" patternUnits="userSpaceOnUse">
      <path d="M-2 8 L8 -2 M2 10 L10 2" stroke="#eb6834" stroke-width="1" opacity=".34"/>
    </pattern>
    <pattern id="ingress-light-transport" width="8" height="8" patternUnits="userSpaceOnUse">
      <path d="M-2 8 L8 -2 M2 10 L10 2 M-2 0 L8 10 M2 -2 L10 6" stroke="#1baf7a" stroke-width="1" opacity=".3"/>
    </pattern>
    <pattern id="ingress-light-observation" width="6" height="6" patternUnits="userSpaceOnUse">
      <circle cx="2" cy="2" r="1" fill="#eda100" opacity=".42"/>
    </pattern>
  </defs>
  <rect width="1440" height="1076" fill="#fcfcfb"/>
  <g font-family="system-ui,-apple-system,Segoe UI,sans-serif" fill="#0b0b0b">
    <text x="56" y="58" font-size="30" font-weight="700">Linux v6.6 TCP ingress source walkthrough</text>
    <text x="56" y="88" font-size="15" fill="#52514e">Linux v6.6 · authored reading route · not a universal runtime stack trace</text>
    <g aria-label="Four labeled phases">
      <rect x="56" y="116" width="317" height="54" rx="8" fill="#ffffff" stroke="#e1e0d9"/>
      <rect x="56" y="116" width="12" height="54" rx="6" fill="#2a78d6"/>
      <rect x="68" y="116" width="36" height="54" fill="url(#ingress-light-packet-io)"/>
      <text x="114" y="139" font-size="14" font-weight="700">Packet I/O</text>
      <text x="114" y="158" font-size="11" fill="#52514e">horizontal pattern</text>
      <rect x="390" y="116" width="317" height="54" rx="8" fill="#ffffff" stroke="#e1e0d9"/>
      <rect x="390" y="116" width="12" height="54" rx="6" fill="#eb6834"/>
      <rect x="402" y="116" width="36" height="54" fill="url(#ingress-light-network)"/>
      <text x="448" y="139" font-size="14" font-weight="700">IPv4 and routing</text>
      <text x="448" y="158" font-size="11" fill="#52514e">diagonal pattern</text>
      <rect x="724" y="116" width="317" height="54" rx="8" fill="#ffffff" stroke="#e1e0d9"/>
      <rect x="724" y="116" width="12" height="54" rx="6" fill="#1baf7a"/>
      <rect x="736" y="116" width="36" height="54" fill="url(#ingress-light-transport)"/>
      <text x="782" y="139" font-size="14" font-weight="700">Socket and TCP</text>
      <text x="782" y="158" font-size="11" fill="#52514e">crosshatch pattern</text>
      <rect x="1058" y="116" width="317" height="54" rx="8" fill="#ffffff" stroke="#e1e0d9"/>
      <rect x="1058" y="116" width="12" height="54" rx="6" fill="#eda100"/>
      <rect x="1070" y="116" width="36" height="54" fill="url(#ingress-light-observation)"/>
      <text x="1116" y="139" font-size="14" font-weight="700">Observation boundary</text>
      <text x="1116" y="158" font-size="11" fill="#52514e">dots pattern</text>
    </g>
    <g aria-label="ingress symbols and edges">
      <rect x="72" y="220" width="1296" height="34" rx="7" fill="#ffffff" stroke="#e1e0d9"/>
      <rect x="72" y="220" width="10" height="34" rx="5" fill="#2a78d6"/>
      <rect x="82" y="220" width="30" height="34" fill="url(#ingress-light-packet-io)"/>
      <text x="124" y="242" font-size="14" font-weight="700">netif_receive_skb</text>
      <text x="480" y="242" font-size="12" fill="#52514e">net/core/dev.c:5805</text>
      <text x="790" y="242" font-size="12" fill="#52514e">sk_buff handed to receive core</text>
      <line x1="56" y1="250" x2="56" y2="266" stroke="#52514e" stroke-width="2" marker-end="url(#ingress-light-arrow)"/>
      <text x="92" y="261" font-size="9" fill="#706f6a">direct-call</text>
      <rect x="72" y="262" width="1296" height="34" rx="7" fill="#ffffff" stroke="#e1e0d9"/>
      <rect x="72" y="262" width="10" height="34" rx="5" fill="#2a78d6"/>
      <rect x="82" y="262" width="30" height="34" fill="url(#ingress-light-packet-io)"/>
      <text x="124" y="284" font-size="14" font-weight="700">__netif_receive_skb_one_core</text>
      <text x="480" y="284" font-size="12" fill="#52514e">net/core/dev.c:5544</text>
      <text x="790" y="284" font-size="12" fill="#52514e">sk_buff consumed or passed to protocol handler</text>
      <line x1="56" y1="292" x2="56" y2="308" stroke="#52514e" stroke-width="2" stroke-dasharray="2 5" marker-end="url(#ingress-light-arrow)"/>
      <text x="92" y="303" font-size="9" fill="#706f6a">callback-dispatch</text>
      <rect x="72" y="304" width="1296" height="34" rx="7" fill="#ffffff" stroke="#e1e0d9"/>
      <rect x="72" y="304" width="10" height="34" rx="5" fill="#eb6834"/>
      <rect x="82" y="304" width="30" height="34" fill="url(#ingress-light-network)"/>
      <text x="124" y="326" font-size="14" font-weight="700">ip_rcv</text>
      <text x="480" y="326" font-size="12" fill="#52514e">net/ipv4/ip_input.c:560</text>
      <text x="790" y="326" font-size="12" fill="#52514e">sk_buff retained on accepted path</text>
      <line x1="56" y1="334" x2="56" y2="350" stroke="#52514e" stroke-width="2" stroke-dasharray="5 3" marker-end="url(#ingress-light-arrow)"/>
      <text x="92" y="345" font-size="9" fill="#706f6a">sequencing</text>
      <rect x="72" y="346" width="1296" height="34" rx="7" fill="#ffffff" stroke="#e1e0d9"/>
      <rect x="72" y="346" width="10" height="34" rx="5" fill="#eb6834"/>
      <rect x="82" y="346" width="30" height="34" fill="url(#ingress-light-network)"/>
      <text x="124" y="368" font-size="14" font-weight="700">NF_INET_PRE_ROUTING</text>
      <text x="480" y="368" font-size="12" fill="#52514e">net/ipv4/ip_input.c:569</text>
      <text x="790" y="368" font-size="12" fill="#52514e">sk_buff retained, consumed, or stolen by a hook</text>
      <line x1="56" y1="376" x2="56" y2="392" stroke="#52514e" stroke-width="2" stroke-dasharray="10 5" marker-end="url(#ingress-light-arrow)"/>
      <text x="92" y="387" font-size="9" fill="#706f6a">hook-continuation</text>
      <rect x="72" y="388" width="1296" height="34" rx="7" fill="#ffffff" stroke="#e1e0d9"/>
      <rect x="72" y="388" width="10" height="34" rx="5" fill="#eb6834"/>
      <rect x="82" y="388" width="30" height="34" fill="url(#ingress-light-network)"/>
      <text x="124" y="410" font-size="14" font-weight="700">ip_rcv_finish</text>
      <text x="480" y="410" font-size="12" fill="#52514e">net/ipv4/ip_input.c:435</text>
      <text x="790" y="410" font-size="12" fill="#52514e">sk_buff passed toward route input</text>
      <line x1="56" y1="418" x2="56" y2="434" stroke="#52514e" stroke-width="2" marker-end="url(#ingress-light-arrow)"/>
      <text x="92" y="429" font-size="9" fill="#706f6a">direct-call</text>
      <rect x="72" y="430" width="1296" height="34" rx="7" fill="#ffffff" stroke="#e1e0d9"/>
      <rect x="72" y="430" width="10" height="34" rx="5" fill="#eb6834"/>
      <rect x="82" y="430" width="30" height="34" fill="url(#ingress-light-network)"/>
      <text x="124" y="452" font-size="14" font-weight="700">ip_route_input_noref</text>
      <text x="480" y="452" font-size="12" fill="#52514e">net/ipv4/route.c:2487</text>
      <text x="790" y="452" font-size="12" fill="#52514e">route attached to sk_buff without a caller reference</text>
      <line x1="56" y1="460" x2="56" y2="476" stroke="#52514e" stroke-width="2" stroke-dasharray="14 5 3 5" marker-end="url(#ingress-light-arrow)"/>
      <text x="92" y="471" font-size="9" fill="#706f6a">conditional-slow-path</text>
      <rect x="72" y="472" width="1296" height="34" rx="7" fill="#ffffff" stroke="#e1e0d9"/>
      <rect x="72" y="472" width="10" height="34" rx="5" fill="#eb6834"/>
      <rect x="82" y="472" width="30" height="34" fill="url(#ingress-light-network)"/>
      <text x="124" y="494" font-size="14" font-weight="700">ip_route_input_slow</text>
      <text x="480" y="494" font-size="12" fill="#52514e">net/ipv4/route.c:2223</text>
      <text x="790" y="494" font-size="12" fill="#52514e">computed route attached to sk_buff</text>
      <line x1="56" y1="502" x2="56" y2="518" stroke="#52514e" stroke-width="2" stroke-dasharray="5 3" marker-end="url(#ingress-light-arrow)"/>
      <text x="92" y="513" font-size="9" fill="#706f6a">sequencing</text>
      <rect x="72" y="514" width="1296" height="34" rx="7" fill="#ffffff" stroke="#e1e0d9"/>
      <rect x="72" y="514" width="10" height="34" rx="5" fill="#eb6834"/>
      <rect x="82" y="514" width="30" height="34" fill="url(#ingress-light-network)"/>
      <text x="124" y="536" font-size="14" font-weight="700">dst_input</text>
      <text x="480" y="536" font-size="12" fill="#52514e">include/net/dst.h:466</text>
      <text x="790" y="536" font-size="12" fill="#52514e">sk_buff passed to destination input callback</text>
      <line x1="56" y1="544" x2="56" y2="560" stroke="#52514e" stroke-width="2" stroke-dasharray="2 5" marker-end="url(#ingress-light-arrow)"/>
      <text x="92" y="555" font-size="9" fill="#706f6a">callback-dispatch</text>
      <rect x="72" y="556" width="1296" height="34" rx="7" fill="#ffffff" stroke="#e1e0d9"/>
      <rect x="72" y="556" width="10" height="34" rx="5" fill="#eb6834"/>
      <rect x="82" y="556" width="30" height="34" fill="url(#ingress-light-network)"/>
      <text x="124" y="578" font-size="14" font-weight="700">ip_local_deliver</text>
      <text x="480" y="578" font-size="12" fill="#52514e">net/ipv4/ip_input.c:242</text>
      <text x="790" y="578" font-size="12" fill="#52514e">sk_buff retained through reassembly or passed to hook</text>
      <line x1="56" y1="586" x2="56" y2="602" stroke="#52514e" stroke-width="2" stroke-dasharray="5 3" marker-end="url(#ingress-light-arrow)"/>
      <text x="92" y="597" font-size="9" fill="#706f6a">sequencing</text>
      <rect x="72" y="598" width="1296" height="34" rx="7" fill="#ffffff" stroke="#e1e0d9"/>
      <rect x="72" y="598" width="10" height="34" rx="5" fill="#eb6834"/>
      <rect x="82" y="598" width="30" height="34" fill="url(#ingress-light-network)"/>
      <text x="124" y="620" font-size="14" font-weight="700">NF_INET_LOCAL_IN</text>
      <text x="480" y="620" font-size="12" fill="#52514e">net/ipv4/ip_input.c:254</text>
      <text x="790" y="620" font-size="12" fill="#52514e">sk_buff retained, consumed, or stolen by a hook</text>
      <line x1="56" y1="628" x2="56" y2="644" stroke="#52514e" stroke-width="2" stroke-dasharray="10 5" marker-end="url(#ingress-light-arrow)"/>
      <text x="92" y="639" font-size="9" fill="#706f6a">hook-continuation</text>
      <rect x="72" y="640" width="1296" height="34" rx="7" fill="#ffffff" stroke="#e1e0d9"/>
      <rect x="72" y="640" width="10" height="34" rx="5" fill="#eb6834"/>
      <rect x="82" y="640" width="30" height="34" fill="url(#ingress-light-network)"/>
      <text x="124" y="662" font-size="14" font-weight="700">ip_local_deliver_finish</text>
      <text x="480" y="662" font-size="12" fill="#52514e">net/ipv4/ip_input.c:227</text>
      <text x="790" y="662" font-size="12" fill="#52514e">sk_buff passed to registered transport handler</text>
      <line x1="56" y1="670" x2="56" y2="686" stroke="#52514e" stroke-width="2" stroke-dasharray="2 5" marker-end="url(#ingress-light-arrow)"/>
      <text x="92" y="681" font-size="9" fill="#706f6a">callback-dispatch</text>
      <rect x="72" y="682" width="1296" height="34" rx="7" fill="#ffffff" stroke="#e1e0d9"/>
      <rect x="72" y="682" width="10" height="34" rx="5" fill="#1baf7a"/>
      <rect x="82" y="682" width="30" height="34" fill="url(#ingress-light-transport)"/>
      <text x="124" y="704" font-size="14" font-weight="700">tcp_v4_rcv</text>
      <text x="480" y="704" font-size="12" fill="#52514e">net/ipv4/tcp_ipv4.c:1983</text>
      <text x="790" y="704" font-size="12" fill="#52514e">sk_buff queued to a socket or freed</text>
      <line x1="56" y1="712" x2="56" y2="728" stroke="#52514e" stroke-width="2" marker-end="url(#ingress-light-arrow)"/>
      <text x="92" y="723" font-size="9" fill="#706f6a">direct-call</text>
      <rect x="72" y="724" width="1296" height="34" rx="7" fill="#ffffff" stroke="#e1e0d9"/>
      <rect x="72" y="724" width="10" height="34" rx="5" fill="#1baf7a"/>
      <rect x="82" y="724" width="30" height="34" fill="url(#ingress-light-transport)"/>
      <text x="124" y="746" font-size="14" font-weight="700">__inet_lookup_skb</text>
      <text x="480" y="746" font-size="12" fill="#52514e">include/net/inet_hashtables.h:492</text>
      <text x="790" y="746" font-size="12" fill="#52514e">socket reference returned for the packet</text>
      <line x1="56" y1="754" x2="56" y2="770" stroke="#52514e" stroke-width="2" marker-end="url(#ingress-light-arrow)"/>
      <text x="92" y="765" font-size="9" fill="#706f6a">direct-call</text>
      <rect x="72" y="766" width="1296" height="34" rx="7" fill="#ffffff" stroke="#e1e0d9"/>
      <rect x="72" y="766" width="10" height="34" rx="5" fill="#1baf7a"/>
      <rect x="82" y="766" width="30" height="34" fill="url(#ingress-light-transport)"/>
      <text x="124" y="788" font-size="14" font-weight="700">__inet_lookup_established</text>
      <text x="480" y="788" font-size="12" fill="#52514e">include/net/inet_hashtables.h:376</text>
      <text x="790" y="788" font-size="12" fill="#52514e">matched socket held for receive processing</text>
      <line x1="56" y1="796" x2="56" y2="812" stroke="#52514e" stroke-width="2" stroke-dasharray="5 3" marker-end="url(#ingress-light-arrow)"/>
      <text x="92" y="807" font-size="9" fill="#706f6a">sequencing</text>
      <rect x="72" y="808" width="1296" height="34" rx="7" fill="#ffffff" stroke="#e1e0d9"/>
      <rect x="72" y="808" width="10" height="34" rx="5" fill="#1baf7a"/>
      <rect x="82" y="808" width="30" height="34" fill="url(#ingress-light-transport)"/>
      <text x="124" y="830" font-size="14" font-weight="700">tcp_rcv_established</text>
      <text x="480" y="830" font-size="12" fill="#52514e">net/ipv4/tcp_input.c:5882</text>
      <text x="790" y="830" font-size="12" fill="#52514e">sk_buff consumed by TCP receive processing</text>
      <line x1="56" y1="838" x2="56" y2="854" stroke="#52514e" stroke-width="2" stroke-dasharray="14 5 3 5" marker-end="url(#ingress-light-arrow)"/>
      <text x="92" y="849" font-size="9" fill="#706f6a">conditional-slow-path</text>
      <rect x="72" y="850" width="1296" height="34" rx="7" fill="#ffffff" stroke="#e1e0d9"/>
      <rect x="72" y="850" width="10" height="34" rx="5" fill="#1baf7a"/>
      <rect x="82" y="850" width="30" height="34" fill="url(#ingress-light-transport)"/>
      <text x="124" y="872" font-size="14" font-weight="700">tcp_ack</text>
      <text x="480" y="872" font-size="12" fill="#52514e">net/ipv4/tcp_input.c:3784</text>
      <text x="790" y="872" font-size="12" fill="#52514e">socket sender state updated; sk_buff remains with caller</text>
    </g>
    <g aria-label="Edge type legend" transform="translate(56 944)">
      <line x1="0" y1="0" x2="64" y2="0" stroke="#52514e" stroke-width="2"/>
      <text x="76" y="5" font-size="13">direct-call</text>
      <line x1="440" y1="0" x2="504" y2="0" stroke="#52514e" stroke-width="2" stroke-dasharray="10 5"/>
      <text x="516" y="5" font-size="13">hook-continuation</text>
      <line x1="880" y1="0" x2="944" y2="0" stroke="#52514e" stroke-width="2" stroke-dasharray="2 5"/>
      <text x="956" y="5" font-size="13">callback-dispatch</text>
      <line x1="0" y1="34" x2="64" y2="34" stroke="#52514e" stroke-width="2" stroke-dasharray="14 5 3 5"/>
      <text x="76" y="39" font-size="13">conditional-slow-path</text>
      <line x1="440" y1="34" x2="504" y2="34" stroke="#52514e" stroke-width="2" stroke-dasharray="5 3"/>
      <text x="516" y="39" font-size="13">sequencing</text>
      <line x1="880" y1="34" x2="944" y2="34" stroke="#52514e" stroke-width="2" stroke-dasharray="12 4 2 4 2 4"/>
      <text x="956" y="39" font-size="13">observation</text>
    </g>
    <text x="56" y="1048" font-size="11" fill="#706f6a">Patterns and direct labels make phase and edge identity independent of color.</text>
  </g>
</svg>
